<svg width="32" height="32" viewBox="0 0 32 32" xmlns="http://www.w3.org/2000/svg">
  <defs>
    <linearGradient id="favGrad" x1="0%" y1="0%" x2="100%" y2="100%">
      <stop offset="0%" style="stop-color:#ff6b9d;stop-opacity:1" />
      <stop offset="100%" style="stop-color:#feca57;stop-opacity:1" />
    </linearGradient>
  </defs>
  <path d="M16 28c-0.5 0-1-0.2-1.4-0.6l-8.8-8.8c-2-2-3-4.6-3-7.3 0-5.5 4.5-10 10-10 2.6 0 5 1 6.8 2.7 1.8-1.7 4.2-2.7 6.8-2.7 5.5 0 10 4.5 10 10 0 2.7-1 5.3-3 7.3l-8.8 8.8c-0.4 0.4-0.9 0.6-1.4 0.6z" fill="url(#favGrad)"/>
</svg> 