<svg width="512" height="512" viewBox="0 0 512 512" xmlns="http://www.w3.org/2000/svg">
  <defs>
    <linearGradient id="heartGrad" x1="0%" y1="0%" x2="100%" y2="100%">
      <stop offset="0%" style="stop-color:#ff6b9d;stop-opacity:1" />
      <stop offset="100%" style="stop-color:#feca57;stop-opacity:1" />
    </linearGradient>
  </defs>
  <!-- Background circle -->
  <circle cx="256" cy="256" r="240" fill="#fff5f5"/>
  <!-- Heart shape -->
  <path d="M256 420c-8 0-15-3-20-8-5-5-127-123-127-123-28-28-43-65-43-104 0-77 63-140 140-140 36 0 70 14 95 38 25-24 59-38 95-38 77 0 140 63 140 140 0 39-15 76-43 104 0 0-122 118-127 123-5 5-12 8-20 8z" fill="url(#heartGrad)"/>
  <!-- Sparkle effects -->
  <circle cx="150" cy="150" r="8" fill="#feca57" opacity="0.6"/>
  <circle cx="362" cy="150" r="8" fill="#ff6b9d" opacity="0.6"/>
  <circle cx="180" cy="320" r="6" fill="#c7a3ff" opacity="0.5"/>
  <circle cx="332" cy="320" r="6" fill="#a8e6cf" opacity="0.5"/>
</svg> 